<?xml version="1.0" encoding="UTF-8" standalone="no"?><!DOCTYPE svg PUBLIC "-//W3C//DTD SVG 1.1//EN" "http://www.w3.org/Graphics/SVG/1.1/DTD/svg11.dtd"><svg width="100%" height="100%" viewBox="0 0 1600 534" version="1.1" xmlns="http://www.w3.org/2000/svg" xmlns:xlink="http://www.w3.org/1999/xlink" xml:space="preserve" xmlns:serif="http://www.serif.com/" style="fill-rule:evenodd;clip-rule:evenodd;stroke-linejoin:round;stroke-miterlimit:1.41421;"><rect x="1.13" y="-0.58" width="1600.31" height="549.056" style="fill:url(#_Radial1);"/><g opacity="0.772727"><path d="M1353.38,58.705c0,24.482 17.81,44.525 40.624,48.412l0,541.447l17.251,0l0,-541.447c23.93,-3.887 41.175,-23.93 41.175,-48.412c0,-27.266 -22.255,-49.528 -49.521,-49.528c-27.274,0 -49.529,22.262 -49.529,49.528Zm17.252,0c0,-17.802 14.467,-32.269 32.277,-32.269c17.81,0 32.276,14.467 32.276,32.269c0,17.81 -14.466,32.27 -32.276,32.27c-17.81,0 -32.277,-14.46 -32.277,-32.27Z" style="fill:url(#_Linear2);fill-rule:nonzero;"/><path d="M1277.13,191.699c0,24.489 17.817,44.525 40.631,48.419l0,207.563l-53.974,53.981l0,146.351l17.244,0l0,-139.122l53.981,-53.973l0.551,0l0,-214.8c22.821,-3.894 40.624,-23.93 40.624,-48.419c0,-27.265 -22.263,-49.528 -49.529,-49.528c-27.266,0 -49.528,22.263 -49.528,49.528Zm17.259,0c0,-17.802 14.467,-32.269 32.269,-32.269c17.818,0 32.285,14.467 32.285,32.269c0,17.81 -14.467,32.285 -32.285,32.285c-17.802,0 -32.269,-14.475 -32.269,-32.285Z" style="fill:#c53d8b;fill-rule:nonzero;"/><path d="M1463.01,230.097c0,24.488 17.802,44.517 40.623,48.419l0,114.625l-159.709,159.717l0,95.706l17.244,0l0,-88.476l159.709,-159.709l0.566,0l0,-121.863c22.806,-3.902 40.616,-23.931 40.616,-48.419c0,-27.266 -22.255,-49.521 -49.528,-49.521c-27.266,0 -49.521,22.255 -49.521,49.521Zm17.244,0c0,-17.803 14.467,-32.27 32.277,-32.27c17.81,0 32.277,14.467 32.277,32.27c0,17.802 -14.467,32.277 -32.277,32.277c-17.81,0 -32.277,-14.475 -32.277,-32.277Z" style="fill:#c53d8b;fill-rule:nonzero;"/><path d="M1463.01,515.012c0,24.481 17.802,44.525 40.623,48.411l0,85.141l17.81,0l0,-85.141c22.806,-3.886 40.616,-23.93 40.616,-48.411c0,-27.266 -22.255,-49.529 -49.528,-49.529c-27.266,0 -49.521,22.263 -49.521,49.529Zm17.244,0c0,-17.803 14.467,-32.277 32.277,-32.277c17.81,0 32.277,14.474 32.277,32.277c0,17.81 -14.467,32.276 -32.277,32.276c-17.81,0 -32.277,-14.466 -32.277,-32.276Z" style="fill:#c53d8b;fill-rule:nonzero;"/><path d="M1148.04,346.405c0.559,24.481 18.361,44.51 41.175,48.412l0,121.87l0.558,0l23.93,23.923l0,107.954l17.252,0l0,-115.184l-24.489,-24.489l0,-114.074c23.372,-3.902 40.624,-24.489 40.624,-48.412c0,-27.273 -22.263,-49.528 -49.529,-49.528c-27.266,0 -49.521,22.255 -49.521,49.528Zm17.803,0c0,-17.81 14.467,-32.277 32.277,-32.277c17.81,0 32.276,14.467 32.276,32.277c0,17.81 -14.466,32.277 -32.276,32.277c-17.81,0 -32.277,-14.467 -32.277,-32.277Z" style="fill:#c53d8b;fill-rule:nonzero;"/></g><defs><radialGradient id="_Radial1" cx="0" cy="0" r="1" gradientUnits="userSpaceOnUse" gradientTransform="matrix(1600.31,0,0,1600.31,1.12974,273.948)"><stop offset="0" style="stop-color:#ec2b94;stop-opacity:1"/><stop offset="1" style="stop-color:#fff;stop-opacity:1"/></radialGradient><linearGradient id="_Linear2" x1="0" y1="0" x2="1" y2="0" gradientUnits="userSpaceOnUse" gradientTransform="matrix(0,-639.389,639.389,0,1402.9,648.568)"><stop offset="0" style="stop-color:#c780bc;stop-opacity:1"/><stop offset="1" style="stop-color:#c13c8a;stop-opacity:1"/></linearGradient></defs></svg>