<?xml version="1.0" encoding="UTF-8" standalone="no"?><!DOCTYPE svg PUBLIC "-//W3C//DTD SVG 1.1//EN" "http://www.w3.org/Graphics/SVG/1.1/DTD/svg11.dtd"><svg width="100%" height="100%" viewBox="0 0 400 400" version="1.1" xmlns="http://www.w3.org/2000/svg" xmlns:xlink="http://www.w3.org/1999/xlink" xml:space="preserve" xmlns:serif="http://www.serif.com/" style="fill-rule:evenodd;clip-rule:evenodd;stroke-linejoin:round;stroke-miterlimit:1.41421;"><g><g><path d="M183.587,44.323c0,11.95 8.693,21.733 19.829,23.63l0,264.283l8.42,0l0,-264.283c11.681,-1.897 20.098,-11.68 20.098,-23.63c0,-13.308 -10.863,-24.175 -24.172,-24.175c-13.312,0 -24.175,10.867 -24.175,24.175Zm8.421,0c0,-8.689 7.061,-15.751 15.754,-15.751c8.693,0 15.755,7.062 15.755,15.751c0,8.693 -7.062,15.751 -15.755,15.751c-8.693,0 -15.754,-7.058 -15.754,-15.751Z" style="fill:url(#_Linear1);fill-rule:nonzero;"/><path d="M146.373,109.238c0,11.953 8.696,21.733 19.832,23.634l0,101.312l-26.345,26.348l0,71.435l8.417,0l0,-67.906l26.348,-26.345l0.269,0l0,-104.844c11.139,-1.901 19.829,-11.681 19.829,-23.634c0,-13.308 -10.867,-24.175 -24.175,-24.175c-13.309,0 -24.175,10.867 -24.175,24.175Zm8.424,0c0,-8.689 7.061,-15.751 15.751,-15.751c8.696,0 15.758,7.062 15.758,15.751c0,8.693 -7.062,15.758 -15.758,15.758c-8.69,0 -15.751,-7.065 -15.751,-15.758Z" style="fill:url(#_Linear2);fill-rule:nonzero;"/><path d="M237.098,127.98c0,11.953 8.69,21.729 19.829,23.634l0,55.949l-77.955,77.958l0,46.715l8.417,0l0,-43.186l77.954,-77.955l0.277,0l0,-59.481c11.131,-1.905 19.824,-11.681 19.824,-23.634c0,-13.309 -10.862,-24.171 -24.175,-24.171c-13.308,0 -24.171,10.862 -24.171,24.171Zm8.417,0c0,-8.689 7.061,-15.751 15.754,-15.751c8.694,0 15.755,7.062 15.755,15.751c0,8.69 -7.061,15.755 -15.755,15.755c-8.693,0 -15.754,-7.065 -15.754,-15.755Z" style="fill:url(#_Linear3);fill-rule:nonzero;"/><path d="M237.098,267.048c0,11.95 8.69,21.733 19.829,23.63l0,41.558l8.693,0l0,-41.558c11.131,-1.897 19.824,-11.68 19.824,-23.63c0,-13.308 -10.862,-24.175 -24.175,-24.175c-13.308,0 -24.171,10.867 -24.171,24.175Zm8.417,0c0,-8.689 7.061,-15.754 15.754,-15.754c8.694,0 15.755,7.065 15.755,15.754c0,8.693 -7.061,15.755 -15.755,15.755c-8.693,0 -15.754,-7.062 -15.754,-15.755Z" style="fill:url(#_Linear4);fill-rule:nonzero;"/><path d="M83.362,184.751c0.273,11.949 8.962,21.725 20.097,23.63l0,59.485l0.273,0l11.68,11.677l0,52.693l8.421,0l0,-56.222l-11.953,-11.953l0,-55.68c11.408,-1.905 19.828,-11.954 19.828,-23.63c0,-13.313 -10.866,-24.175 -24.175,-24.175c-13.308,0 -24.171,10.862 -24.171,24.175Zm8.69,0c0,-8.693 7.061,-15.755 15.754,-15.755c8.693,0 15.754,7.062 15.754,15.755c0,8.693 -7.061,15.754 -15.754,15.754c-8.693,0 -15.754,-7.061 -15.754,-15.754Z" style="fill:url(#_Linear5);fill-rule:nonzero;"/></g><g><path d="M80.626,368.032c0,2.336 -0.474,4.371 -1.424,6.106c-0.949,1.736 -2.335,3.084 -4.158,4.044c-1.823,0.96 -4,1.441 -6.532,1.441l-7.727,0l0,-23.116l7.727,0c2.532,0 4.709,0.475 6.532,1.425c1.823,0.949 3.209,2.286 4.158,4.01c0.95,1.725 1.424,3.755 1.424,6.09Zm-12.408,8.218c2.772,0 4.9,-0.72 6.384,-2.161c1.484,-1.44 2.226,-3.459 2.226,-6.057c0,-2.597 -0.742,-4.616 -2.226,-6.057c-1.484,-1.44 -3.612,-2.161 -6.384,-2.161l-3.7,0l0,16.436l3.7,0Z" style="fill-rule:nonzero;"/><path d="M99.813,374.613l-9.757,0l-1.768,5.01l-3.995,0l8.513,-22.755l4.289,0l8.48,22.755l-3.994,0l-1.768,-5.01Zm-1.048,-2.881l-3.831,-10.805l-3.83,10.805l7.661,0Z" style="fill-rule:nonzero;"/><path d="M124.859,356.507l0,3.013l-6.45,0l0,20.103l-3.765,0l0,-20.103l-6.417,0l0,-3.013l16.632,0Z" style="fill-rule:nonzero;"/><path d="M143.063,374.613l-9.756,0l-1.768,5.01l-3.995,0l8.513,-22.755l4.289,0l8.48,22.755l-3.995,0l-1.768,-5.01Zm-1.047,-2.881l-3.831,-10.805l-3.831,10.805l7.662,0Z" style="fill-rule:nonzero;"/><path d="M160.482,367.934l10.182,11.689l-4.551,0l-9.135,-10.707l0,10.707l-3.732,0l0,-23.116l3.732,0l0,10.576l9.168,-10.576l4.518,0l-10.182,11.427Z" style="fill-rule:nonzero;"/><path d="M187.231,379.623l-5.762,-9.233l-2.652,0l0,9.233l-3.733,0l0,-23.116l8.153,0c2.641,0 4.643,0.644 6.008,1.932c1.364,1.288 2.046,2.991 2.046,5.108c0,1.811 -0.508,3.296 -1.523,4.453c-1.015,1.156 -2.482,1.899 -4.403,2.226l6.057,9.397l-4.191,0Zm-8.414,-11.885l4.125,0c3.012,0 4.518,-1.332 4.518,-3.995c0,-1.266 -0.365,-2.253 -1.097,-2.963c-0.731,-0.709 -1.871,-1.064 -3.421,-1.064l-4.125,0l0,8.022Z" style="fill-rule:nonzero;"/><path d="M210.084,374.613l-9.757,0l-1.768,5.01l-3.994,0l8.513,-22.755l4.289,0l8.48,22.755l-3.995,0l-1.768,-5.01Zm-1.047,-2.881l-3.831,-10.805l-3.831,10.805l7.662,0Z" style="fill-rule:nonzero;"/><path d="M233.92,356.507l0,3.013l-9.921,0l0,7.17l8.185,0l0,2.881l-8.185,0l0,10.052l-3.732,0l0,-23.116l13.653,0Z" style="fill-rule:nonzero;"/><path d="M266.562,356.507l0,23.116l-3.765,0l0,-10.379l-10.87,0l0,10.379l-3.732,0l0,-23.116l3.732,0l0,9.692l10.87,0l0,-9.692l3.765,0Z" style="fill-rule:nonzero;"/><path d="M284.865,379.623l-5.763,-9.233l-2.652,0l0,9.233l-3.732,0l0,-23.116l8.152,0c2.641,0 4.644,0.644 6.008,1.932c1.364,1.288 2.046,2.991 2.046,5.108c0,1.811 -0.507,3.296 -1.522,4.453c-1.015,1.156 -2.483,1.899 -4.404,2.226l6.057,9.397l-4.19,0Zm-8.415,-11.885l4.126,0c3.012,0 4.518,-1.332 4.518,-3.995c0,-1.266 -0.366,-2.253 -1.097,-2.963c-0.731,-0.709 -1.872,-1.064 -3.421,-1.064l-4.126,0l0,8.022Z" style="fill-rule:nonzero;"/><path d="M317.9,356.868l0,22.755l-3.765,0l0,-17.058l-6.581,17.058l-3.274,0l-6.614,-17.058l0,17.058l-3.732,0l0,-22.755l4.518,0l7.531,18.171l7.399,-18.171l4.518,0Z" style="fill-rule:nonzero;"/><path d="M339.215,373.467c0,1.135 -0.273,2.188 -0.819,3.16c-0.546,0.971 -1.375,1.751 -2.488,2.341c-1.113,0.589 -2.478,0.884 -4.093,0.884c-1.571,0 -2.979,-0.279 -4.223,-0.835c-1.245,-0.557 -2.238,-1.337 -2.98,-2.341c-0.742,-1.004 -1.168,-2.161 -1.277,-3.471l3.995,0c0.109,1.004 0.54,1.867 1.293,2.587c0.753,0.72 1.762,1.08 3.028,1.08c1.135,0 2.014,-0.305 2.636,-0.916c0.622,-0.612 0.933,-1.397 0.933,-2.358c0,-0.829 -0.229,-1.511 -0.687,-2.046c-0.459,-0.535 -1.026,-0.955 -1.703,-1.261c-0.677,-0.305 -1.604,-0.654 -2.783,-1.047c-1.44,-0.459 -2.614,-0.917 -3.519,-1.375c-0.906,-0.459 -1.676,-1.125 -2.309,-1.998c-0.633,-0.873 -0.949,-2.019 -0.949,-3.437c0,-1.245 0.305,-2.336 0.917,-3.275c0.611,-0.938 1.484,-1.664 2.619,-2.177c1.135,-0.513 2.444,-0.769 3.929,-0.769c2.357,0 4.229,0.567 5.615,1.702c1.386,1.135 2.177,2.62 2.374,4.453l-4.028,0c-0.152,-0.873 -0.562,-1.621 -1.227,-2.243c-0.666,-0.622 -1.577,-0.933 -2.734,-0.933c-1.048,0 -1.888,0.268 -2.521,0.802c-0.633,0.535 -0.95,1.305 -0.95,2.309c0,0.785 0.218,1.435 0.655,1.948c0.437,0.513 0.988,0.916 1.653,1.211c0.666,0.295 1.577,0.639 2.734,1.031c1.463,0.459 2.658,0.923 3.585,1.392c0.928,0.469 1.714,1.151 2.358,2.046c0.644,0.895 0.966,2.074 0.966,3.536Z" style="fill-rule:nonzero;"/></g></g><defs><linearGradient id="_Linear1" x1="0" y1="0" x2="1" y2="0" gradientUnits="userSpaceOnUse" gradientTransform="matrix(1.91099e-14,-312.088,312.088,1.91099e-14,207.762,332.237)"><stop offset="0" style="stop-color:#19314b;stop-opacity:1"/><stop offset="1" style="stop-color:#007bff;stop-opacity:1"/></linearGradient><linearGradient id="_Linear2" x1="0" y1="0" x2="1" y2="0" gradientUnits="userSpaceOnUse" gradientTransform="matrix(2.16854e-14,-246.904,354.15,1.51185e-14,167.293,331.968)"><stop offset="0" style="stop-color:#19314b;stop-opacity:1"/><stop offset="1" style="stop-color:#007bff;stop-opacity:1"/></linearGradient><linearGradient id="_Linear3" x1="0" y1="0" x2="1" y2="0" gradientUnits="userSpaceOnUse" gradientTransform="matrix(4.20847e-14,-228.427,687.295,1.39871e-14,232.211,332.237)"><stop offset="0" style="stop-color:#19314b;stop-opacity:1"/><stop offset="1" style="stop-color:#007bff;stop-opacity:1"/></linearGradient><linearGradient id="_Linear4" x1="0" y1="0" x2="1" y2="0" gradientUnits="userSpaceOnUse" gradientTransform="matrix(1.91095e-14,-89.363,312.082,5.47191e-15,261.272,332.236)"><stop offset="0" style="stop-color:#19314b;stop-opacity:1"/><stop offset="1" style="stop-color:#007bff;stop-opacity:1"/></linearGradient><linearGradient id="_Linear5" x1="0" y1="0" x2="1" y2="0" gradientUnits="userSpaceOnUse" gradientTransform="matrix(1.91095e-14,-171.66,312.082,1.05111e-14,107.536,332.237)"><stop offset="0" style="stop-color:#19314b;stop-opacity:1"/><stop offset="1" style="stop-color:#007bff;stop-opacity:1"/></linearGradient></defs></svg>