<?xml version="1.0" encoding="UTF-8" standalone="no"?><!DOCTYPE svg PUBLIC "-//W3C//DTD SVG 1.1//EN" "http://www.w3.org/Graphics/SVG/1.1/DTD/svg11.dtd"><svg width="100%" height="100%" viewBox="0 0 500 500" version="1.1" xmlns="http://www.w3.org/2000/svg" xmlns:xlink="http://www.w3.org/1999/xlink" xml:space="preserve" xmlns:serif="http://www.serif.com/" style="fill-rule:evenodd;clip-rule:evenodd;stroke-linejoin:round;stroke-miterlimit:1.41421;"><path d="M499.166,-85.474l-269.374,0c-84.811,46.393 -41.768,182.741 57.583,169.502c93.658,-12.474 140.558,32.765 120.701,123.429c-20.939,95.603 63.49,98 91.09,76.566l0,-369.497Z" style="fill:url(#_Linear1);fill-rule:nonzero;"/><path d="M92.447,610.177c2.145,-59.126 -25.703,-114.742 -86.054,-99.154l0,242.058l219.167,0c-4.877,-93.123 -137.145,-31.523 -133.113,-142.904Z" style="fill:url(#_Linear2);fill-rule:nonzero;"/><path d="M503.854,380.184c-66.535,0.411 -68.178,42.161 -52.837,73.932c15.334,31.774 52.837,54.778 52.837,54.778l0,-128.71Z" style="fill:url(#_Linear3);fill-rule:nonzero;"/><path d="M297.886,96.783c-39.273,4.585 -64.091,33.49 -16.623,33.861c26.209,0.208 37.758,-11.21 37.758,-20.888c0,-7.852 -7.597,-14.554 -21.135,-12.973Z" style="fill:url(#_Linear4);fill-rule:nonzero;"/><path d="M38.044,289.85c-13.262,-28.591 -10.774,-49.785 -8.286,-69.613c3.438,-27.385 6.876,-52.167 -31.177,-90.22l0,365.05c42.62,-49.723 59.669,-89.149 59.669,-127.435c0,-25.528 -7.575,-50.55 -20.206,-77.782Z" style="fill:url(#_Linear5);fill-rule:nonzero;"/><ellipse cx="406.836" cy="310.785" rx="14.297" ry="14.299" style="fill:url(#_Linear6);"/><circle cx="62.537" cy="452.792" r="8.443" style="fill:url(#_Linear7);"/><circle cx="304.146" cy="447.291" r="17.377" style="fill:url(#_Linear8);"/><ellipse cx="504.828" cy="367.733" rx="5.429" ry="5.43" style="fill:url(#_Linear9);"/><ellipse cx="86.477" cy="418.988" rx="14.117" ry="14.119" style="fill:url(#_Linear10);"/><path d="M0.143,-15.414l0,128c26.176,-17.679 37.981,-40.97 37.981,-63.756c-0.004,-24.573 -13.739,-48.553 -37.981,-64.244Z" style="fill:url(#_Linear11);fill-rule:nonzero;"/><defs><linearGradient id="_Linear1" x1="0" y1="0" x2="1" y2="0" gradientUnits="userSpaceOnUse" gradientTransform="matrix(197.022,187.64,-187.64,197.022,272.069,-81.834)"><stop offset="0" style="stop-color:#e95276;stop-opacity:1"/><stop offset="1" style="stop-color:#e9973a;stop-opacity:1"/></linearGradient><linearGradient id="_Linear2" x1="0" y1="0" x2="1" y2="0" gradientUnits="userSpaceOnUse" gradientTransform="matrix(109.812,136.689,-136.689,109.812,-31.512,554.236)"><stop offset="0" style="stop-color:#006ad0;stop-opacity:1"/><stop offset="1" style="stop-color:#00a9fd;stop-opacity:1"/></linearGradient><linearGradient id="_Linear3" x1="0" y1="0" x2="1" y2="0" gradientUnits="userSpaceOnUse" gradientTransform="matrix(193.672,241.074,-241.074,193.672,364.639,278.617)"><stop offset="0" style="stop-color:#f6a200;stop-opacity:1"/><stop offset="1" style="stop-color:#fd0;stop-opacity:1"/></linearGradient><linearGradient id="_Linear4" x1="0" y1="0" x2="1" y2="0" gradientUnits="userSpaceOnUse" gradientTransform="matrix(104.71,74.3612,-74.3612,104.71,218.224,64.7132)"><stop offset="0" style="stop-color:#e95276;stop-opacity:1"/><stop offset="1" style="stop-color:#e9973a;stop-opacity:1"/></linearGradient><linearGradient id="_Linear5" x1="0" y1="0" x2="1" y2="0" gradientUnits="userSpaceOnUse" gradientTransform="matrix(61.7949,445.498,-445.498,61.7949,-12.1494,134.346)"><stop offset="0" style="stop-color:#e95276;stop-opacity:1"/><stop offset="1" style="stop-color:#e9973a;stop-opacity:1"/></linearGradient><linearGradient id="_Linear6" x1="0" y1="0" x2="1" y2="0" gradientUnits="userSpaceOnUse" gradientTransform="matrix(46.1533,57.4495,-57.4495,46.1533,375.984,272.381)"><stop offset="0" style="stop-color:#f6a200;stop-opacity:1"/><stop offset="1" style="stop-color:#fd0;stop-opacity:1"/></linearGradient><linearGradient id="_Linear7" x1="0" y1="0" x2="1" y2="0" gradientUnits="userSpaceOnUse" gradientTransform="matrix(27.2491,33.9185,-33.9185,27.2491,44.3218,430.118)"><stop offset="0" style="stop-color:#f6a200;stop-opacity:1"/><stop offset="1" style="stop-color:#fd0;stop-opacity:1"/></linearGradient><linearGradient id="_Linear8" x1="0" y1="0" x2="1" y2="0" gradientUnits="userSpaceOnUse" gradientTransform="matrix(-23.4546,-18.0716,18.0716,-23.4546,312.397,453.649)"><stop offset="0" style="stop-color:#4dd2ff;stop-opacity:1"/><stop offset="1" style="stop-color:#4dfeff;stop-opacity:1"/></linearGradient><linearGradient id="_Linear9" x1="0" y1="0" x2="1" y2="0" gradientUnits="userSpaceOnUse" gradientTransform="matrix(-7.32956,-5.64737,5.64737,-7.32956,507.406,369.72)"><stop offset="0" style="stop-color:#4dd2ff;stop-opacity:1"/><stop offset="1" style="stop-color:#4dfeff;stop-opacity:1"/></linearGradient><linearGradient id="_Linear10" x1="0" y1="0" x2="1" y2="0" gradientUnits="userSpaceOnUse" gradientTransform="matrix(-19.0569,-14.6832,14.6832,-19.0569,93.1825,424.154)"><stop offset="0" style="stop-color:#4dd2ff;stop-opacity:1"/><stop offset="1" style="stop-color:#4dfeff;stop-opacity:1"/></linearGradient><linearGradient id="_Linear11" x1="0" y1="0" x2="1" y2="0" gradientUnits="userSpaceOnUse" gradientTransform="matrix(-56.2635,-43.3506,43.3506,-56.2635,22.117,65.3128)"><stop offset="0" style="stop-color:#4dd2ff;stop-opacity:1"/><stop offset="1" style="stop-color:#4dfeff;stop-opacity:1"/></linearGradient></defs></svg>